<svg xmlns="http://www.w3.org/2000/svg" width="41.162" height="54.893" viewBox="0 0 41.162 54.893">
  <path id="bulb" d="M14.434,46.081v8.806H32.728V46.461a13.732,13.732,0,0,1,4.418-10.409A20.58,20.58,0,1,0,9.559,35.64a14.322,14.322,0,0,1,4.875,10.441Zm13.72,4.233H19.008V46.081c0-.114-.016-.229-.018-.341h9.2c0,.24-.037.478-.037.72ZM7.712,18.472A16.007,16.007,0,1,1,34.13,32.613a17.5,17.5,0,0,0-5.243,8.555H25.868V24.74A6.86,6.86,0,0,0,30.441,18.3H25.868a2.287,2.287,0,0,1-4.573,0H16.721a6.86,6.86,0,0,0,4.573,6.439V41.167H18.272a19.743,19.743,0,0,0-5.6-8.875A15.915,15.915,0,0,1,7.712,18.472Z" transform="translate(-2.999 0.005)" fill="#fff"/>
</svg>
