<svg xmlns="http://www.w3.org/2000/svg" width="47.553" height="47.393" viewBox="0 0 47.553 47.393">
  <path id="clock-up-arrow" d="M21.8,11.889h3.963V24.643l-9.683,5.923-2.067-3.382L21.8,22.422V11.891ZM3.963,23.778a19.8,19.8,0,0,1,39.5-1.981h3.963A23.754,23.754,0,1,0,6.485,40.1a24.236,24.236,0,0,0,2.861,2.548l2.82-2.82a20.141,20.141,0,0,1-2.8-2.449,19.736,19.736,0,0,1-5.4-13.6Zm39.629,1.981H35.666v3.963h5.088l-9.3,9.3-6.44-6.44L13,44.591l2.8,2.8,9.21-9.21,6.44,6.44L43.59,32.488v5.16h3.963V29.722a3.967,3.967,0,0,0-3.963-3.963Z" fill="#fff"/>
</svg>
