<svg xmlns="http://www.w3.org/2000/svg" width="41.162" height="41.162" viewBox="0 0 41.162 41.162">
  <path id="globe_3_" data-name="globe (3)" d="M20.581,0A20.581,20.581,0,1,0,41.162,20.581,20.581,20.581,0,0,0,20.581,0Zm5.526,12.006H15.055a33.64,33.64,0,0,1,5.526-7.869,33.565,33.565,0,0,1,5.526,7.869Zm1.372,3.43a17.513,17.513,0,0,1,.816,5.145,17.513,17.513,0,0,1-.816,5.145H13.68a17.513,17.513,0,0,1-.816-5.145,17.513,17.513,0,0,1,.816-5.145ZM16.122,4.041a33.746,33.746,0,0,0-4.847,7.965H5.751A17.2,17.2,0,0,1,16.122,4.041ZM3.43,20.581a17.13,17.13,0,0,1,.791-5.147h5.9a20.609,20.609,0,0,0-.686,5.145,20.608,20.608,0,0,0,.686,5.145h-5.9A17.127,17.127,0,0,1,3.43,20.581Zm2.321,8.576h5.524a33.746,33.746,0,0,0,4.847,7.965A17.2,17.2,0,0,1,5.751,29.157Zm9.3,0H26.107a33.64,33.64,0,0,1-5.526,7.869,33.565,33.565,0,0,1-5.526-7.869Zm9.994,7.965a33.747,33.747,0,0,0,4.838-7.965h5.524A17.2,17.2,0,0,1,25.049,37.122Zm12.683-16.54a17.129,17.129,0,0,1-.791,5.147h-5.9a20.609,20.609,0,0,0,.686-5.145,20.609,20.609,0,0,0-.686-5.145h5.895a17.127,17.127,0,0,1,.794,5.145Zm-7.845-8.576a33.746,33.746,0,0,0-4.838-7.965,17.2,17.2,0,0,1,10.363,7.965Z" fill="#fff"/>
</svg>
