<svg id="Group_44" data-name="Group 44" xmlns="http://www.w3.org/2000/svg" xmlns:xlink="http://www.w3.org/1999/xlink" width="98" height="89.37" viewBox="0 0 98 89.37">
  <defs>
    <clipPath id="clip-path">
      <rect id="Rectangle_43" data-name="Rectangle 43" width="98" height="89.37" fill="#3f2416"/>
    </clipPath>
  </defs>
  <g id="Group_7" data-name="Group 7" clip-path="url(#clip-path)">
    <path id="Path_1486" data-name="Path 1486" d="M71.765,72.5v35.883H61.513V72.392h-.052A20.452,20.452,0,0,0,41.009,92.844v15.537H30.757V72.5H20.5v35.883H15.378V72.5H5.126v35.883H0v10.252H82.018V72.5ZM49,108.382V95.368a4.391,4.391,0,0,1,4.391-4.391h.139v17.4Z" transform="translate(0 -61.668)" fill="#3f2416"/>
    <rect id="Rectangle_40" data-name="Rectangle 40" width="10.252" height="46.135" transform="translate(87.144 10.831)" fill="#3f2416"/>
    <path id="Path_1487" data-name="Path 1487" d="M14.073,504.81l-.981,2.668h-.606l2.833-7.716h.706l2.954,7.716h-.65l-1-2.668Zm3.053-.551c-.86-2.293-1.3-3.4-1.455-3.913H15.66c-.188.584-.684,1.951-1.378,3.913Z" transform="translate(-10.636 -425.731)" fill="#3f2416"/>
    <path id="Path_1488" data-name="Path 1488" d="M169.724,499.76h.6v7.165h4.145l-.11.551h-4.63Z" transform="translate(-144.582 -425.73)" fill="#3f2416"/>
    <path id="Path_1489" data-name="Path 1489" d="M312.473,499.76v4.674c0,2.05,1.158,2.579,2.249,2.579,1.29,0,2.249-.54,2.249-2.579V499.76h.606V504.4c0,2.414-1.279,3.164-2.877,3.164-1.521,0-2.844-.827-2.844-3.065v-4.74Z" transform="translate(-265.66 -425.73)" fill="#3f2416"/>
    <path id="Path_1490" data-name="Path 1490" d="M469.242,499.76h.6v7.165h4.145l-.11.551h-4.63Z" transform="translate(-399.733 -425.73)" fill="#3f2416"/>
    <path id="Path_1491" data-name="Path 1491" d="M612.813,504.81l-.981,2.668h-.606l2.833-7.716h.706l2.954,7.716h-.65l-1-2.668Zm3.053-.551c-.86-2.293-1.3-3.4-1.455-3.913H614.4c-.188.584-.684,1.951-1.378,3.913Z" transform="translate(-520.684 -425.731)" fill="#3f2416"/>
    <path id="Path_1492" data-name="Path 1492" d="M22.072,417.851l-.472-.42-.4.472.48.394Z" transform="translate(-18.058 -355.597)" fill="#3f2416"/>
    <path id="Path_1493" data-name="Path 1493" d="M29.416,417.2l-.4.472.48.394.394-.446Z" transform="translate(-24.715 -355.399)" fill="#3f2416"/>
    <path id="Path_1494" data-name="Path 1494" d="M43.134,421.373a9.494,9.494,0,0,1,1.767-.506l-.069-.352a3.54,3.54,0,0,1-.66.112.643.643,0,0,1-.446-.146.455.455,0,0,1-.163-.351.361.361,0,0,1,.129-.3.518.518,0,0,1,.334-.1,1.229,1.229,0,0,1,.489.1l.137-.326a1.43,1.43,0,0,0-.643-.163.827.827,0,0,0-.562.2.72.72,0,0,0-.227.575.738.738,0,0,0,.412.695q-.214.068-.609.223Z" transform="translate(-36.649 -357.224)" fill="#3f2416"/>
    <path id="Path_1495" data-name="Path 1495" d="M90.55,419.68l.463.377.377-.429-.446-.4Z" transform="translate(-77.137 -357.125)" fill="#3f2416"/>
    <path id="Path_1496" data-name="Path 1496" d="M95.526,425.658l-.463-.412-.4.463.472.386Z" transform="translate(-80.638 -362.254)" fill="#3f2416"/>
    <path id="Path_1497" data-name="Path 1497" d="M27.544,431.618a3.73,3.73,0,0,0,.129-1.046,5.8,5.8,0,0,0-.2-1.484l-.54.129a6.685,6.685,0,0,1,.223,1.6c0,.034,0,.087,0,.159s0,.122,0,.15a1.87,1.87,0,0,1-.918.232.8.8,0,0,1-.892-.909v-1.046l-.523.051v1.021a.743.743,0,0,1-.364.673,1.612,1.612,0,0,1-.87.227,1.815,1.815,0,0,1-1.029-.274,2.183,2.183,0,0,0,.137-.677l.051-.823-.523.06-.051.695a1.146,1.146,0,0,1-.279.789,1.066,1.066,0,0,1-.716.206h-.309a2.988,2.988,0,0,1-1.449-.3,2.5,2.5,0,0,0,.137-.909v-1.115l-.54.052v1.1a1.822,1.822,0,0,1-.052.472.912.912,0,0,1-.2.36.926.926,0,0,1-.472.257,3.253,3.253,0,0,1-.819.086H17.22a1.22,1.22,0,0,1-.8-.2.849.849,0,0,1-.227-.665v-2.461a3.8,3.8,0,0,0-2.225.647,1.929,1.929,0,0,0-.931,1.634.833.833,0,0,0,.472.785,2.784,2.784,0,0,0,1.3.253,7.777,7.777,0,0,0,.969-.06,1.226,1.226,0,0,0,1.295.7h.42a2.3,2.3,0,0,0,1.621-.463,2.8,2.8,0,0,0,1.7.463h.214a1.73,1.73,0,0,0,1.158-.352,2.084,2.084,0,0,0,1.364.4,2.469,2.469,0,0,0,.9-.167,1.1,1.1,0,0,0,.6-.485,1.114,1.114,0,0,0,1.123.609,2.892,2.892,0,0,0,1.372-.377m-12.631-.84q-1.372,0-1.372-.609a1.323,1.323,0,0,1,.6-.982,2.627,2.627,0,0,1,1.531-.545v1.921a1.379,1.379,0,0,0,.008.18,6.5,6.5,0,0,1-.763.034" transform="translate(-11.104 -364.621)" fill="#3f2416"/>
    <path id="Path_1498" data-name="Path 1498" d="M86.9,425.94l.472.386.394-.437-.463-.412Z" transform="translate(-74.03 -362.451)" fill="#3f2416"/>
    <path id="Path_1499" data-name="Path 1499" d="M126.276,419.066h.06a4.72,4.72,0,0,0,.952-.1,2.733,2.733,0,0,0,.746-.244,4.273,4.273,0,0,0,.159-.913q.03-.467.03-1.6,0-1.037-.034-3.353l-.574.052q.043,2.479.043,3.533a15.01,15.01,0,0,1-.086,1.827,4.082,4.082,0,0,1-1.226.163h-.129a2.986,2.986,0,0,1-1.449-.3,2.5,2.5,0,0,0,.137-.909v-1.115l-.54.051v1.1a1.822,1.822,0,0,1-.052.472.911.911,0,0,1-.2.36.927.927,0,0,1-.472.257,3.261,3.261,0,0,1-.819.086h-.24a1.26,1.26,0,0,1-1-.343,1.861,1.861,0,0,1-.3-1.2v-4.031l-.575.052v4.065a2.657,2.657,0,0,0,.382,1.569,1.566,1.566,0,0,0,1.351.523h.4a2.3,2.3,0,0,0,1.621-.463,2.8,2.8,0,0,0,1.7.463Z" transform="translate(-102.83 -351.7)" fill="#3f2416"/>
    <path id="Path_1500" data-name="Path 1500" d="M137.118,424.2l-.429.5.506.42.42-.471Z" transform="translate(-116.441 -361.366)" fill="#3f2416"/>
    <path id="Path_1501" data-name="Path 1501" d="M180.8,419.066h.566v-6.209l-.566.052Z" transform="translate(-154.02 -351.7)" fill="#3f2416"/>
    <path id="Path_1502" data-name="Path 1502" d="M207.388,433.189a4.8,4.8,0,0,0-.42,1.921,2.01,2.01,0,0,0,.6,1.556,2.508,2.508,0,0,0,1.758.553,3.423,3.423,0,0,0,2.354-.737,2.614,2.614,0,0,0,.828-2.058,3.6,3.6,0,0,0-.472-1.947,1.421,1.421,0,0,0-1.243-.746,1.362,1.362,0,0,0-1.123.544,2.144,2.144,0,0,0-.429,1.368,1.557,1.557,0,0,0,.343,1.072,1.525,1.525,0,0,0,1.184.386,3.921,3.921,0,0,0,1.192-.172,1.558,1.558,0,0,1-.184.575,1.942,1.942,0,0,1-1.2.935,3.805,3.805,0,0,1-1.136.154q-1.913,0-1.912-1.655a4.216,4.216,0,0,1,.326-1.569Zm3.567,1.329a1.418,1.418,0,0,1-.943-.24.922.922,0,0,1-.266-.72,1.508,1.508,0,0,1,.262-.866.868.868,0,0,1,.767-.386.975.975,0,0,1,.866.6,3.2,3.2,0,0,1,.343,1.47,3.851,3.851,0,0,1-1.029.137" transform="translate(-176.31 -367.778)" fill="#3f2416"/>
    <path id="Path_1503" data-name="Path 1503" d="M226.359,421.657l-.4.472.48.395.394-.446Z" transform="translate(-192.485 -359.196)" fill="#3f2416"/>
    <path id="Path_1504" data-name="Path 1504" d="M234.174,421.425l-.4.472.48.394.394-.446Z" transform="translate(-199.142 -358.999)" fill="#3f2416"/>
    <path id="Path_1505" data-name="Path 1505" d="M253.789,412.857l-.566.052v6.157h.566Z" transform="translate(-215.713 -351.7)" fill="#3f2416"/>
    <path id="Path_1506" data-name="Path 1506" d="M274.636,432.373a6.686,6.686,0,0,1,.223,1.6q0,.052,0,.159c0,.072,0,.122,0,.15a1.87,1.87,0,0,1-.918.232.8.8,0,0,1-.892-.909v-1.046l-.523.051v1.021a.743.743,0,0,1-.364.673,1.612,1.612,0,0,1-.87.227,1.815,1.815,0,0,1-1.029-.275,2.182,2.182,0,0,0,.137-.677l.051-.823-.523.06-.051.695a1.146,1.146,0,0,1-.279.789,1.065,1.065,0,0,1-.716.206h-.892v-.086a3.605,3.605,0,0,0-.467-1.964,1.424,1.424,0,0,0-1.248-.729,1.374,1.374,0,0,0-1.128.544,2.129,2.129,0,0,0-.433,1.368,1.44,1.44,0,0,0,.39,1.072,1.952,1.952,0,0,0,1.385.386q.369,0,.935-.017a1.811,1.811,0,0,1-.154.489,1.845,1.845,0,0,1-.326.459,1.469,1.469,0,0,1-.592.36,2.632,2.632,0,0,1-.875.133,3.832,3.832,0,0,1-.815-.077l-.086.532a3.79,3.79,0,0,0,.918.12,2.531,2.531,0,0,0,1.655-.506,2.3,2.3,0,0,0,.78-1.449h.806a1.73,1.73,0,0,0,1.158-.352,2.084,2.084,0,0,0,1.364.4,2.468,2.468,0,0,0,.9-.167,1.1,1.1,0,0,0,.6-.485,1.114,1.114,0,0,0,1.123.609,2.892,2.892,0,0,0,1.372-.377,3.73,3.73,0,0,0,.129-1.046,5.8,5.8,0,0,0-.2-1.484Zm-7.178,2.135h-.883a1.75,1.75,0,0,1-1.068-.24.862.862,0,0,1-.3-.712,1.5,1.5,0,0,1,.266-.862.868.868,0,0,1,.763-.39.99.99,0,0,1,.892.63,3.28,3.28,0,0,1,.326,1.522Z" transform="translate(-225.378 -367.777)" fill="#3f2416"/>
    <path id="Path_1507" data-name="Path 1507" d="M340.014,408.417a3.53,3.53,0,0,1-.66.112.646.646,0,0,1-.446-.146.456.456,0,0,1-.163-.352.361.361,0,0,1,.129-.3.519.519,0,0,1,.335-.1,1.229,1.229,0,0,1,.489.1l.137-.326a1.432,1.432,0,0,0-.643-.163.826.826,0,0,0-.562.2.719.719,0,0,0-.227.574.738.738,0,0,0,.412.695q-.214.069-.609.223l.112.343a9.532,9.532,0,0,1,1.767-.506Z" transform="translate(-288.106 -346.917)" fill="#3f2416"/>
    <path id="Path_1508" data-name="Path 1508" d="M344.37,418.371a5.7,5.7,0,0,0,.223-.935,10.064,10.064,0,0,0,.069-1.364q0-.643-.051-3.216l-.566.052q.051,2.624.051,3.5a6.232,6.232,0,0,1-.154,1.544,3.2,3.2,0,0,1-1.483.5q.026-.309.026-.592a8.716,8.716,0,0,0-.78-3.636l-.523.2a8.446,8.446,0,0,1,.8,3.533q0,.249-.026.506a5.54,5.54,0,0,1-1.14-.154v.583a4.4,4.4,0,0,0,1.355.189,3.777,3.777,0,0,0,.952-.116,3.339,3.339,0,0,0,.69-.244,6.089,6.089,0,0,0,.562-.343" transform="translate(-290.326 -351.7)" fill="#3f2416"/>
    <path id="Path_1509" data-name="Path 1509" d="M376.182,419.066h.566v-6.209l-.566.052Z" transform="translate(-320.457 -351.7)" fill="#3f2416"/>
    <path id="Path_1510" data-name="Path 1510" d="M418.787,425.073l-.4.472.48.395.394-.446Z" transform="translate(-356.408 -362.106)" fill="#3f2416"/>
    <path id="Path_1511" data-name="Path 1511" d="M408.015,432.85a7.477,7.477,0,0,1,.24,1.741q0,.206-.009.309a8.266,8.266,0,0,1-3.966.476,2.988,2.988,0,0,1-.69-.172,1.044,1.044,0,0,1-.4-.279.949.949,0,0,1-.2-.352,1.541,1.541,0,0,1-.051-.42,5.18,5.18,0,0,1,.214-1.261l-.506-.111a5.317,5.317,0,0,0-.3,1.569,1.853,1.853,0,0,0,.116.686,1.348,1.348,0,0,0,.412.536,2.075,2.075,0,0,0,.87.373,6.585,6.585,0,0,0,1.415.129,9.563,9.563,0,0,0,2.062-.206,4.835,4.835,0,0,0,1.462-.532,2.993,2.993,0,0,0,.137-.96,6.646,6.646,0,0,0-.231-1.664Z" transform="translate(-342.747 -368.615)" fill="#3f2416"/>
    <path id="Path_1512" data-name="Path 1512" d="M426.6,424.841l-.4.472.48.394.395-.446Z" transform="translate(-363.065 -361.908)" fill="#3f2416"/>
    <path id="Path_1513" data-name="Path 1513" d="M455.479,412.857l-.566.052v6.157h.566Z" transform="translate(-387.527 -351.7)" fill="#3f2416"/>
    <path id="Path_1514" data-name="Path 1514" d="M467.127,427.909l-.4.42a7.025,7.025,0,0,1,1.214,1.385,3.287,3.287,0,0,1,.493,1.385,5.087,5.087,0,0,1-1.7.266q-.4,0-1.226-.069v.609a7.051,7.051,0,0,0,1.132.077,4.628,4.628,0,0,0,2.23-.437,2.258,2.258,0,0,0,.051-.489,3.322,3.322,0,0,0-.412-1.488,5.776,5.776,0,0,0-1.381-1.659" transform="translate(-396.55 -364.522)" fill="#3f2416"/>
    <path id="Path_1515" data-name="Path 1515" d="M580.263,425.07l.394-.446-.471-.42-.4.472Z" transform="translate(-493.899 -361.366)" fill="#3f2416"/>
    <path id="Path_1516" data-name="Path 1516" d="M572.447,425.3l.394-.446-.472-.42-.4.472Z" transform="translate(-487.241 -361.563)" fill="#3f2416"/>
    <path id="Path_1517" data-name="Path 1517" d="M514.18,414.2a1.376,1.376,0,0,0-1.1.549,2.04,2.04,0,0,0-.45,1.338q0,1.372,1.535,1.372a3.9,3.9,0,0,0,1.2-.172,6.1,6.1,0,0,1-.086.763,10.407,10.407,0,0,1-3.207.377h-.232a2.987,2.987,0,0,1-1.449-.3,2.5,2.5,0,0,0,.137-.909v-1.115l-.54.051v1.1a1.829,1.829,0,0,1-.051.472.915.915,0,0,1-.2.36.927.927,0,0,1-.471.257,3.263,3.263,0,0,1-.819.086h-.266a2.641,2.641,0,0,1-1.081-.206,4.32,4.32,0,0,0,.06-.669,2.145,2.145,0,0,0-.468-1.441,1.635,1.635,0,0,0-1.316-.549,2.965,2.965,0,0,0-1.775.6,7.476,7.476,0,0,0-1.724,1.968q-.446-.163-.463-.172a3.817,3.817,0,0,0,.077-.8v-1.063l-.549.051v1.1a1.988,1.988,0,0,1-.047.472.949.949,0,0,1-.189.365.826.826,0,0,1-.446.257,3.07,3.07,0,0,1-.776.081h-.266a1.26,1.26,0,0,1-1-.343,1.862,1.862,0,0,1-.3-1.2v-4.031l-.575.051v4.065a2.657,2.657,0,0,0,.382,1.569,1.566,1.566,0,0,0,1.351.523h.386a2.05,2.05,0,0,0,1.681-.557,6.574,6.574,0,0,0,1.3.437,8.089,8.089,0,0,0,1.7.146,6.958,6.958,0,0,0,2.641-.4,2.3,2.3,0,0,0,1.389.377h.292a2.3,2.3,0,0,0,1.621-.463,2.8,2.8,0,0,0,1.7.463h.343a7.768,7.768,0,0,0,3.516-.575,5.123,5.123,0,0,0,.206-1.578,3.694,3.694,0,0,0-.459-1.981,1.384,1.384,0,0,0-1.213-.729m-7.555,3.927a7.443,7.443,0,0,1-2.35.334,8.589,8.589,0,0,1-1.887-.18,7.822,7.822,0,0,1,1.509-1.655,2.315,2.315,0,0,1,1.4-.472,1.233,1.233,0,0,1,.978.412,1.83,1.83,0,0,1,.36,1.235q0,.214-.009.326m7.726-1.183q-1.235,0-1.235-.943a1.463,1.463,0,0,1,.274-.862.889.889,0,0,1,.772-.39.948.948,0,0,1,.84.557,3.35,3.35,0,0,1,.36,1.5,3.723,3.723,0,0,1-1.012.137" transform="translate(-423.674 -351.7)" fill="#3f2416"/>
    <path id="Path_1518" data-name="Path 1518" d="M612.545,411.989l-.4.472.48.394.395-.446Z" transform="translate(-521.465 -350.96)" fill="#3f2416"/>
    <path id="Path_1519" data-name="Path 1519" d="M604.73,412.22l-.4.472.48.394.395-.446Z" transform="translate(-514.807 -351.158)" fill="#3f2416"/>
    <path id="Path_1520" data-name="Path 1520" d="M629.847,418.371a6.494,6.494,0,0,0,.214-.9,8.288,8.288,0,0,0,.069-1.222q0-.952-.043-3.387l-.566.052q.06,3.036.06,3.61a5.2,5.2,0,0,1-.163,1.441,3.271,3.271,0,0,1-1.492.489q.025-.309.026-.592a9.694,9.694,0,0,0-1.218-4.373l-.523.326a8.664,8.664,0,0,1,1.243,4.142,5.061,5.061,0,0,1-.026.506,5.8,5.8,0,0,1-1.149-.154v.583a4.438,4.438,0,0,0,1.363.189,3.776,3.776,0,0,0,.952-.116,3.231,3.231,0,0,0,.686-.244q.24-.129.566-.343" transform="translate(-533.45 -351.7)" fill="#3f2416"/>
    <path id="Path_1521" data-name="Path 1521" d="M15.308,576.936a1.055,1.055,0,0,1-.883-.376,1.618,1.618,0,0,1-.3-1.026,1.843,1.843,0,0,1,.284-1.07.987.987,0,0,1,.871-.41,2.213,2.213,0,0,1,.738.155l.087-.3a2.139,2.139,0,0,0-.83-.17,1.343,1.343,0,0,0-1.128.495,2.055,2.055,0,0,0-.386,1.3,1.86,1.86,0,0,0,.4,1.254,1.414,1.414,0,0,0,1.135.464,1.8,1.8,0,0,0,.835-.189l-.073-.3a1.875,1.875,0,0,1-.752.175" transform="translate(-11.726 -488.75)" fill="#3f2416"/>
    <path id="Path_1522" data-name="Path 1522" d="M33.374,580.158a1,1,0,0,0-.808.349,1.624,1.624,0,0,0,0,1.863,1.117,1.117,0,0,0,1.623,0,1.636,1.636,0,0,0,0-1.863,1,1,0,0,0-.815-.349m.568,2a.655.655,0,0,1-.568.262.648.648,0,0,1-.56-.265,1.45,1.45,0,0,1,0-1.441.648.648,0,0,1,.56-.264.655.655,0,0,1,.568.262,1.476,1.476,0,0,1,0,1.446" transform="translate(-27.492 -494.218)" fill="#3f2416"/>
    <path id="Path_1523" data-name="Path 1523" d="M52.924,580.158a2.235,2.235,0,0,0-1.029.248v2.256h.34v-2.043a1.444,1.444,0,0,1,.689-.165.561.561,0,0,1,.631.616v1.591h.34v-1.611a.869.869,0,0,0-.245-.657,1.009,1.009,0,0,0-.725-.235" transform="translate(-44.208 -494.218)" fill="#3f2416"/>
    <path id="Path_1524" data-name="Path 1524" d="M69.33,573.912v.276h-.369v.286h.369v2.159h.34v-2.159h.665v-.286H69.67v-.281a.686.686,0,0,1,.095-.393.366.366,0,0,1,.322-.136,1.941,1.941,0,0,1,.282.039l.068-.277a1.582,1.582,0,0,0-.393-.058q-.713,0-.713.83" transform="translate(-58.746 -488.191)" fill="#3f2416"/>
    <path id="Path_1525" data-name="Path 1525" d="M81.416,580.158a1.021,1.021,0,0,0-.818.354,1.368,1.368,0,0,0-.3.922,1.281,1.281,0,0,0,.337.951,1.248,1.248,0,0,0,.919.335,1.919,1.919,0,0,0,.82-.17l-.063-.286a1.873,1.873,0,0,1-.733.16.934.934,0,0,1-.667-.23.957.957,0,0,1-.265-.687h1.747a2.584,2.584,0,0,0,.015-.286,1.118,1.118,0,0,0-.262-.762.914.914,0,0,0-.728-.3m.65,1.106H80.649a1,1,0,0,1,.233-.594.683.683,0,0,1,.534-.221.588.588,0,0,1,.49.209.8.8,0,0,1,.165.514.709.709,0,0,1,0,.092" transform="translate(-68.401 -494.218)" fill="#3f2416"/>
    <path id="Path_1526" data-name="Path 1526" d="M99.36,580.406v2.256h.34v-2.043a1.4,1.4,0,0,1,.7-.165.709.709,0,0,1,.2.024l.049-.3a1.551,1.551,0,0,0-.272-.024,2.034,2.034,0,0,0-1.019.248" transform="translate(-84.642 -494.218)" fill="#3f2416"/>
    <path id="Path_1527" data-name="Path 1527" d="M111.323,580.158a1.021,1.021,0,0,0-.818.354,1.368,1.368,0,0,0-.3.922,1.281,1.281,0,0,0,.337.951,1.248,1.248,0,0,0,.919.335,1.919,1.919,0,0,0,.82-.17l-.063-.286a1.873,1.873,0,0,1-.733.16.934.934,0,0,1-.667-.23.957.957,0,0,1-.265-.687H112.3a2.587,2.587,0,0,0,.015-.286,1.118,1.118,0,0,0-.262-.762.914.914,0,0,0-.728-.3m.65,1.106h-1.417a1,1,0,0,1,.233-.594.683.683,0,0,1,.534-.221.588.588,0,0,1,.49.209.8.8,0,0,1,.165.514.708.708,0,0,1,0,.092" transform="translate(-93.878 -494.218)" fill="#3f2416"/>
    <path id="Path_1528" data-name="Path 1528" d="M130.166,580.158a2.235,2.235,0,0,0-1.029.248v2.256h.34v-2.043a1.444,1.444,0,0,1,.689-.165.561.561,0,0,1,.631.616v1.591h.34v-1.611a.869.869,0,0,0-.245-.657,1.009,1.009,0,0,0-.725-.235" transform="translate(-110.008 -494.218)" fill="#3f2416"/>
    <path id="Path_1529" data-name="Path 1529" d="M148.427,582.424a.86.86,0,0,1-.665-.247,1.032,1.032,0,0,1-.228-.723,1.133,1.133,0,0,1,.216-.733.755.755,0,0,1,.624-.267,1.651,1.651,0,0,1,.606.126l.073-.277a1.628,1.628,0,0,0-.7-.146,1.082,1.082,0,0,0-.862.354,1.391,1.391,0,0,0-.308.946,1.282,1.282,0,0,0,.32.932,1.206,1.206,0,0,0,.907.33,1.409,1.409,0,0,0,.665-.155l-.068-.281a1.329,1.329,0,0,1-.582.141" transform="translate(-125.382 -494.218)" fill="#3f2416"/>
    <path id="Path_1530" data-name="Path 1530" d="M163.834,580.158a1.021,1.021,0,0,0-.818.354,1.368,1.368,0,0,0-.3.922,1.281,1.281,0,0,0,.337.951,1.248,1.248,0,0,0,.919.335,1.919,1.919,0,0,0,.82-.17l-.063-.286a1.873,1.873,0,0,1-.733.16.934.934,0,0,1-.667-.23.957.957,0,0,1-.265-.687h1.747a2.583,2.583,0,0,0,.015-.286,1.118,1.118,0,0,0-.262-.762.914.914,0,0,0-.728-.3m.65,1.106h-1.417a1,1,0,0,1,.233-.594.683.683,0,0,1,.534-.221.588.588,0,0,1,.49.209.8.8,0,0,1,.165.514.708.708,0,0,1,0,.092" transform="translate(-138.61 -494.218)" fill="#3f2416"/>
    <path id="Path_1531" data-name="Path 1531" d="M187.618,573.912v.276h-.369v.286h.369v2.159h.34v-2.159h.665v-.286h-.665v-.281a.686.686,0,0,1,.095-.393.366.366,0,0,1,.322-.136,1.941,1.941,0,0,1,.282.039l.068-.277a1.582,1.582,0,0,0-.393-.058q-.713,0-.713.83" transform="translate(-159.512 -488.191)" fill="#3f2416"/>
    <path id="Path_1532" data-name="Path 1532" d="M199.685,580.158a1,1,0,0,0-.808.349,1.624,1.624,0,0,0,0,1.863,1.117,1.117,0,0,0,1.623,0,1.636,1.636,0,0,0,0-1.863,1,1,0,0,0-.815-.349m.568,2a.736.736,0,0,1-1.128,0,1.45,1.45,0,0,1,0-1.441.648.648,0,0,1,.56-.264.655.655,0,0,1,.568.262,1.476,1.476,0,0,1,0,1.446" transform="translate(-169.167 -494.218)" fill="#3f2416"/>
    <path id="Path_1533" data-name="Path 1533" d="M218.336,580.406v2.256h.34v-2.043a1.4,1.4,0,0,1,.7-.165.708.708,0,0,1,.2.024l.049-.3a1.55,1.55,0,0,0-.272-.024,2.034,2.034,0,0,0-1.019.248" transform="translate(-185.994 -494.218)" fill="#3f2416"/>
    <path id="Path_1534" data-name="Path 1534" d="M238.416,577.527h1.98v-.306h-1.63v-1.286h1.4v-.306h-1.4v-1.193h1.63v-.306h-1.98Z" transform="translate(-203.099 -489.083)" fill="#3f2416"/>
    <path id="Path_1535" data-name="Path 1535" d="M259.023,580.158a1.689,1.689,0,0,0-.868.253.918.918,0,0,0-.694-.253,2.149,2.149,0,0,0-.995.248v2.256h.34v-2.043a1.3,1.3,0,0,1,.645-.165.536.536,0,0,1,.6.616v1.591h.335v-1.567a1.288,1.288,0,0,0-.068-.427,1.219,1.219,0,0,1,.7-.213.589.589,0,0,1,.461.167.647.647,0,0,1,.15.449v1.591h.34v-1.611a.893.893,0,0,0-.235-.652.948.948,0,0,0-.706-.24" transform="translate(-218.475 -494.218)" fill="#3f2416"/>
    <path id="Path_1536" data-name="Path 1536" d="M285.758,580.158a1.021,1.021,0,0,0-.818.354,1.368,1.368,0,0,0-.3.922,1.281,1.281,0,0,0,.337.951,1.248,1.248,0,0,0,.919.335,1.919,1.919,0,0,0,.82-.17l-.063-.286a1.873,1.873,0,0,1-.733.16.934.934,0,0,1-.667-.23.957.957,0,0,1-.265-.687h1.747a2.58,2.58,0,0,0,.015-.286,1.119,1.119,0,0,0-.262-.762.914.914,0,0,0-.728-.3m.65,1.106h-1.417a.994.994,0,0,1,.233-.594.683.683,0,0,1,.534-.221.588.588,0,0,1,.49.209.8.8,0,0,1,.165.514.712.712,0,0,1,0,.092" transform="translate(-242.473 -494.218)" fill="#3f2416"/>
    <path id="Path_1537" data-name="Path 1537" d="M303.7,580.406v2.256h.34v-2.043a1.4,1.4,0,0,1,.7-.165.708.708,0,0,1,.2.024l.049-.3a1.55,1.55,0,0,0-.272-.024,2.034,2.034,0,0,0-1.019.248" transform="translate(-258.714 -494.218)" fill="#3f2416"/>
    <path id="Path_1538" data-name="Path 1538" d="M314.868,580.493a1.252,1.252,0,0,0-.323.907,1.184,1.184,0,0,0,.3.859,1.075,1.075,0,0,0,.81.306,1.122,1.122,0,0,0,.6-.155v.286a.557.557,0,0,1-.177.439.771.771,0,0,1-.527.158,1.979,1.979,0,0,1-.689-.121l-.078.286a2.265,2.265,0,0,0,.781.131,1.12,1.12,0,0,0,.757-.235.853.853,0,0,0,.272-.682v-2.319a1.781,1.781,0,0,0-.849-.194,1.159,1.159,0,0,0-.876.335m1.385,1.611a.963.963,0,0,1-.563.165.745.745,0,0,1-.585-.236.942.942,0,0,1-.211-.653.964.964,0,0,1,.228-.679.8.8,0,0,1,.621-.247,1.3,1.3,0,0,1,.509.1Z" transform="translate(-267.951 -494.218)" fill="#3f2416"/>
    <path id="Path_1539" data-name="Path 1539" d="M334.1,574.033a.213.213,0,0,0-.228.223.237.237,0,0,0,.061.167.246.246,0,0,0,.335,0,.237.237,0,0,0,.061-.167.213.213,0,0,0-.228-.223" transform="translate(-284.415 -489.001)" fill="#3f2416"/>
    <rect id="Rectangle_41" data-name="Rectangle 41" width="0.34" height="2.446" transform="translate(49.515 85.998)" fill="#3f2416"/>
    <path id="Path_1540" data-name="Path 1540" d="M343.485,580.158a2.234,2.234,0,0,0-1.029.248v2.256h.34v-2.043a1.443,1.443,0,0,1,.689-.165.561.561,0,0,1,.631.616v1.591h.34v-1.611a.868.868,0,0,0-.245-.657,1.008,1.008,0,0,0-.725-.235" transform="translate(-291.728 -494.218)" fill="#3f2416"/>
    <path id="Path_1541" data-name="Path 1541" d="M360.827,580.493a1.252,1.252,0,0,0-.323.907,1.183,1.183,0,0,0,.3.859,1.075,1.075,0,0,0,.81.306,1.122,1.122,0,0,0,.6-.155v.286a.558.558,0,0,1-.177.439.771.771,0,0,1-.527.158,1.978,1.978,0,0,1-.689-.121l-.078.286a2.265,2.265,0,0,0,.781.131,1.12,1.12,0,0,0,.757-.235.853.853,0,0,0,.272-.682v-2.319a1.782,1.782,0,0,0-.849-.194,1.159,1.159,0,0,0-.876.335m1.385,1.611a.963.963,0,0,1-.563.165.745.745,0,0,1-.585-.236.942.942,0,0,1-.211-.653.964.964,0,0,1,.228-.679.8.8,0,0,1,.621-.247,1.3,1.3,0,0,1,.509.1Z" transform="translate(-307.102 -494.218)" fill="#3f2416"/>
    <path id="Path_1542" data-name="Path 1542" d="M389.714,576.663a16.952,16.952,0,0,1-1.33-2.533h-.364v3.4h.33v-2.261q0-.325-.019-.524a17.278,17.278,0,0,0,1.228,2.266h.3a16.32,16.32,0,0,0,1.218-2.261q-.014.451-.015.519v2.261h.33v-3.4h-.364a17.079,17.079,0,0,1-1.315,2.533" transform="translate(-330.542 -489.083)" fill="#3f2416"/>
    <path id="Path_1543" data-name="Path 1543" d="M416.552,580.158a1.889,1.889,0,0,0-.757.141l.077.281a1.628,1.628,0,0,1,.655-.126q.635,0,.636.592v.281a2.713,2.713,0,0,0-.587-.068,1.191,1.191,0,0,0-.679.187.631.631,0,0,0-.262.556.643.643,0,0,0,.238.522,1.04,1.04,0,0,0,.679.2,1.839,1.839,0,0,0,.946-.228v-1.431a.894.894,0,0,0-.238-.672.981.981,0,0,0-.708-.231m.611,2.155a1.077,1.077,0,0,1-.582.136.745.745,0,0,1-.449-.117.4.4,0,0,1-.158-.34q0-.485.636-.485a2.723,2.723,0,0,1,.553.068Z" transform="translate(-354.066 -494.218)" fill="#3f2416"/>
    <path id="Path_1544" data-name="Path 1544" d="M433.946,580.406v2.256h.34v-2.043a1.4,1.4,0,0,1,.7-.165.708.708,0,0,1,.2.024l.049-.3a1.551,1.551,0,0,0-.272-.024,2.034,2.034,0,0,0-1.019.248" transform="translate(-369.665 -494.218)" fill="#3f2416"/>
    <path id="Path_1545" data-name="Path 1545" d="M448.026,574.44h-.335a1.471,1.471,0,0,1-.332.733,3.141,3.141,0,0,1-.789.611v-2.407l-.34.02v3.489h.34v-.767a5.194,5.194,0,0,0,.507-.321l.745,1.088h.388l-.888-1.276a1.82,1.82,0,0,0,.7-1.169" transform="translate(-380.13 -488.442)" fill="#3f2416"/>
    <path id="Path_1546" data-name="Path 1546" d="M462.878,580.158a1.021,1.021,0,0,0-.818.354,1.368,1.368,0,0,0-.3.922,1.281,1.281,0,0,0,.337.951,1.248,1.248,0,0,0,.919.335,1.919,1.919,0,0,0,.82-.17l-.063-.286a1.873,1.873,0,0,1-.733.16.934.934,0,0,1-.667-.23.957.957,0,0,1-.265-.687h1.747a2.588,2.588,0,0,0,.015-.286,1.118,1.118,0,0,0-.262-.762.915.915,0,0,0-.728-.3m.65,1.106h-1.417a.994.994,0,0,1,.233-.594.683.683,0,0,1,.534-.221.588.588,0,0,1,.49.209.8.8,0,0,1,.165.514.7.7,0,0,1,0,.092" transform="translate(-393.356 -494.218)" fill="#3f2416"/>
    <path id="Path_1547" data-name="Path 1547" d="M479.622,579.3a.408.408,0,0,1-.313-.111.531.531,0,0,1-.1-.369v-1.441h.66v-.286h-.66v-.6l-.34.024v.578H478.5v.286h.369v1.441q0,.776.713.776a1.425,1.425,0,0,0,.364-.049l-.024-.286a1.037,1.037,0,0,1-.3.039" transform="translate(-407.616 -491.093)" fill="#3f2416"/>
    <path id="Path_1548" data-name="Path 1548" d="M499.79,577.527h1.98v-.306h-1.63v-1.286h1.4v-.306h-1.4v-1.193h1.63v-.306h-1.98Z" transform="translate(-425.756 -489.083)" fill="#3f2416"/>
    <path id="Path_1549" data-name="Path 1549" d="M517.311,582.424a.86.86,0,0,1-.665-.247,1.032,1.032,0,0,1-.228-.723,1.134,1.134,0,0,1,.216-.733.756.756,0,0,1,.624-.267,1.651,1.651,0,0,1,.606.126l.073-.277a1.627,1.627,0,0,0-.7-.146,1.082,1.082,0,0,0-.862.354,1.391,1.391,0,0,0-.308.946,1.283,1.283,0,0,0,.32.932,1.206,1.206,0,0,0,.907.33,1.409,1.409,0,0,0,.665-.155l-.068-.281a1.329,1.329,0,0,1-.582.141" transform="translate(-439.623 -494.218)" fill="#3f2416"/>
    <path id="Path_1550" data-name="Path 1550" d="M532.7,580.158a1,1,0,0,0-.808.349,1.624,1.624,0,0,0,0,1.863,1.117,1.117,0,0,0,1.623,0,1.636,1.636,0,0,0,0-1.863,1,1,0,0,0-.815-.349m.568,2a.736.736,0,0,1-1.128,0,1.45,1.45,0,0,1,0-1.441.648.648,0,0,1,.56-.264.655.655,0,0,1,.568.262,1.476,1.476,0,0,1,0,1.446" transform="translate(-452.85 -494.218)" fill="#3f2416"/>
    <path id="Path_1551" data-name="Path 1551" d="M552.248,580.158a2.235,2.235,0,0,0-1.029.248v2.256h.34v-2.043a1.444,1.444,0,0,1,.689-.165.56.56,0,0,1,.631.616v1.591h.34v-1.611a.868.868,0,0,0-.245-.657,1.008,1.008,0,0,0-.725-.235" transform="translate(-469.566 -494.218)" fill="#3f2416"/>
    <path id="Path_1552" data-name="Path 1552" d="M570.369,580.158a1,1,0,0,0-.808.349,1.624,1.624,0,0,0,0,1.863,1.117,1.117,0,0,0,1.623,0,1.636,1.636,0,0,0,0-1.863,1,1,0,0,0-.815-.349m.568,2a.655.655,0,0,1-.568.262.648.648,0,0,1-.56-.265,1.449,1.449,0,0,1,0-1.441.648.648,0,0,1,.56-.264.655.655,0,0,1,.568.262,1.476,1.476,0,0,1,0,1.446" transform="translate(-484.941 -494.218)" fill="#3f2416"/>
    <path id="Path_1553" data-name="Path 1553" d="M591.447,580.158a1.688,1.688,0,0,0-.869.253.918.918,0,0,0-.694-.253,2.149,2.149,0,0,0-.995.248v2.256h.34v-2.043a1.3,1.3,0,0,1,.645-.165.536.536,0,0,1,.6.616v1.591h.335v-1.567a1.288,1.288,0,0,0-.068-.427,1.219,1.219,0,0,1,.7-.213.589.589,0,0,1,.461.167.647.647,0,0,1,.15.449v1.591h.34v-1.611a.893.893,0,0,0-.235-.652.947.947,0,0,0-.706-.24" transform="translate(-501.657 -494.218)" fill="#3f2416"/>
    <rect id="Rectangle_42" data-name="Rectangle 42" width="0.34" height="2.446" transform="translate(91.581 85.998)" fill="#3f2416"/>
    <path id="Path_1554" data-name="Path 1554" d="M618.077,574.033a.213.213,0,0,0-.228.223.236.236,0,0,0,.061.167.246.246,0,0,0,.335,0,.236.236,0,0,0,.061-.167.213.213,0,0,0-.228-.223" transform="translate(-526.326 -489.001)" fill="#3f2416"/>
    <path id="Path_1555" data-name="Path 1555" d="M626.5,580.158a1.021,1.021,0,0,0-.818.354,1.368,1.368,0,0,0-.3.922,1.281,1.281,0,0,0,.337.951,1.248,1.248,0,0,0,.919.335,1.919,1.919,0,0,0,.82-.17l-.063-.286a1.873,1.873,0,0,1-.733.16.934.934,0,0,1-.667-.23.957.957,0,0,1-.264-.687h1.747a2.588,2.588,0,0,0,.015-.286,1.118,1.118,0,0,0-.262-.762.914.914,0,0,0-.728-.3m.65,1.106h-1.417a1,1,0,0,1,.233-.594.683.683,0,0,1,.534-.221.588.588,0,0,1,.49.209.8.8,0,0,1,.165.514.716.716,0,0,1,0,.092" transform="translate(-532.744 -494.218)" fill="#3f2416"/>
    <path id="Path_1556" data-name="Path 1556" d="M643.768,581.294c-.094-.029-.164-.053-.211-.073a1.462,1.462,0,0,1-.16-.08.3.3,0,0,1-.126-.124.388.388,0,0,1-.036-.175q0-.388.519-.388a2.041,2.041,0,0,1,.621.112l.049-.286a1.809,1.809,0,0,0-.689-.121.973.973,0,0,0-.624.177.617.617,0,0,0-.221.512.564.564,0,0,0,.184.454,1.442,1.442,0,0,0,.524.26,2.119,2.119,0,0,1,.5.2.3.3,0,0,1,.145.269.331.331,0,0,1-.15.291.725.725,0,0,1-.412.1,2.139,2.139,0,0,1-.748-.141l-.058.291a1.766,1.766,0,0,0,.357.1,2.367,2.367,0,0,0,.454.046,1.1,1.1,0,0,0,.65-.175.594.594,0,0,0,.247-.519.538.538,0,0,0-.194-.446,1.926,1.926,0,0,0-.621-.286" transform="translate(-547.645 -494.218)" fill="#3f2416"/>
    <path id="Path_1557" data-name="Path 1557" d="M98.992,23.818h2.552a1.723,1.723,0,0,0,1.362-.566,3.686,3.686,0,0,0,2.044.576,2.775,2.775,0,0,0,1.67-.461,1.467,1.467,0,0,0,1.209.451h.288a3.976,3.976,0,0,0,2.169-.537,3.92,3.92,0,0,0,.134-1.132,6.948,6.948,0,0,0-.249-1.861l-.595.153a6.93,6.93,0,0,1,.269,1.948q0,.154-.019.4a3.78,3.78,0,0,1-1.708.317h-.269a1.131,1.131,0,0,1-.715-.177,1.366,1.366,0,0,1-.35-.724,4.24,4.24,0,0,0-.643-1.569,1.283,1.283,0,0,0-1.075-.494,1.51,1.51,0,0,0-1.05.35,3.949,3.949,0,0,0-.782,1.108,5.279,5.279,0,0,1-.763,1.19,1.2,1.2,0,0,1-.9.317H32.157A1.345,1.345,0,0,1,30.7,22.1q-.134-.393-.4-1.554l-.6.173a9.425,9.425,0,0,1,.393,2.207,2.889,2.889,0,0,1-.494,1.708,1.715,1.715,0,0,1-1.5.7,2.693,2.693,0,0,1-.528-.048l-.086.6a3.855,3.855,0,0,0,.71.077,2.242,2.242,0,0,0,1.737-.724,3.165,3.165,0,0,0,.729-2.039,1.66,1.66,0,0,0,1.42.614H98.992Zm4.663-1.775a3.465,3.465,0,0,1,.667-.988,1,1,0,0,1,.686-.269.863.863,0,0,1,.772.408,5.078,5.078,0,0,1,.513,1.434c.006.019.014.051.024.1s.018.077.024.1a2.34,2.34,0,0,1-1.324.345,3.551,3.551,0,0,1-1.727-.451q.125-.2.365-.672" transform="translate(-23.405 -17.159)" fill="#3f2416"/>
    <path id="Path_1558" data-name="Path 1558" d="M572.135,10.833l-.528-.47-.451.528.537.441Z" transform="translate(-486.551 -8.828)" fill="#3f2416"/>
    <path id="Path_1559" data-name="Path 1559" d="M580.88,10.575l-.528-.47-.451.528.537.441Z" transform="translate(-494 -8.608)" fill="#3f2416"/>
    <path id="Path_1560" data-name="Path 1560" d="M600.752,2.274a10.646,10.646,0,0,1,1.976-.566l-.077-.393a3.952,3.952,0,0,1-.739.125.72.72,0,0,1-.5-.163.509.509,0,0,1-.182-.393.405.405,0,0,1,.144-.336.581.581,0,0,1,.374-.115,1.376,1.376,0,0,1,.547.115l.154-.365A1.6,1.6,0,0,0,601.73,0a.925.925,0,0,0-.628.221.805.805,0,0,0-.254.643.826.826,0,0,0,.461.777q-.24.077-.681.249Z" transform="translate(-511.655 0)" fill="#3f2416"/>
    <path id="Path_1561" data-name="Path 1561" d="M604.625,19.949a1.436,1.436,0,0,0-1.228-.624,1.551,1.551,0,0,0-1.055.35,3.671,3.671,0,0,0-.787,1.1,5.288,5.288,0,0,1-.763,1.19,1.19,1.19,0,0,1-.888.317h-.835v-.1a4.031,4.031,0,0,0-.523-2.2,1.592,1.592,0,0,0-1.4-.816,1.536,1.536,0,0,0-1.262.609,2.381,2.381,0,0,0-.484,1.53,1.61,1.61,0,0,0,.437,1.2,2.184,2.184,0,0,0,1.549.432q.413,0,1.046-.019a2.021,2.021,0,0,1-.173.547,2.061,2.061,0,0,1-.364.513,1.644,1.644,0,0,1-.662.4,2.945,2.945,0,0,1-.979.149,4.281,4.281,0,0,1-.911-.086l-.1.595a4.236,4.236,0,0,0,1.026.134,2.833,2.833,0,0,0,1.852-.566A2.574,2.574,0,0,0,599,22.991h.873a1.7,1.7,0,0,0,1.391-.6,4.1,4.1,0,0,0,2.379.614,4.435,4.435,0,0,0,1.2-.144,3.98,3.98,0,0,0,.23-1.353,2.585,2.585,0,0,0-.451-1.554m-6.141,2.332H597.5a1.958,1.958,0,0,1-1.195-.269.965.965,0,0,1-.331-.8,1.675,1.675,0,0,1,.3-.964.971.971,0,0,1,.854-.437,1.108,1.108,0,0,1,1,.705,3.672,3.672,0,0,1,.365,1.7Zm5.93.029a4.673,4.673,0,0,1-.633.038,4.154,4.154,0,0,1-2.14-.5q.1-.144.345-.633a3.326,3.326,0,0,1,.677-.988,1.063,1.063,0,0,1,.715-.269.929.929,0,0,1,.816.451,2.17,2.17,0,0,1,.3,1.209,3.185,3.185,0,0,1-.077.691" transform="translate(-507.076 -16.332)" fill="#3f2416"/>
    <line id="Line_1" data-name="Line 1" x2="95.608" transform="translate(1.743 71.283)" fill="none"/>
  </g>
</svg>
